<svg xmlns="http://www.w3.org/2000/svg" width="38" height="38" viewBox="0 0 38 38">
    <path fill="#226CE0" fill-rule="nonzero" d="M37.721 18.882l-3.228-4.205.722-5.225-4.927-1.954-1.954-4.928-5.225.722L18.86.022 14.655 3.25 9.43 2.528 7.476 7.455 2.55 9.41l.722 5.225L0 18.882l3.228 4.205-.722 5.225 4.928 1.954 1.954 4.928 5.225-.722 4.205 3.228 4.206-3.228 5.225.722 1.954-4.928 4.927-1.996-.722-5.225 3.313-4.163zm-20.39 6.117l-6.286-5.182 1.359-1.657 4.673 3.823 7.986-9.218 1.614 1.402-9.346 10.832z"/>
</svg>
