<svg xmlns="http://www.w3.org/2000/svg" width="35" height="35" viewBox="0 0 35 35">
    <g fill="#226CE0" fill-rule="nonzero">
        <circle cx="17.5" cy="18.208" r="3.29"/>
        <path d="M17.5 0C7.835 0 0 7.835 0 17.5 0 27.164 7.835 35 17.5 35 27.164 35 35 27.164 35 17.5 35 7.835 27.164 0 17.5 0zm9.196 20.043l-2.486.16c-.14.47-.325.918-.554 1.34l1.644 1.871-2.595 2.595-1.87-1.644c-.423.229-.871.414-1.34.553l-.16 2.487h-3.671l-.16-2.487a6.96 6.96 0 0 1-1.34-.553l-1.87 1.644-2.595-2.596 1.643-1.87a6.963 6.963 0 0 1-.553-1.34l-2.486-.16v-3.67l2.486-.16c.139-.47.325-.918.553-1.34L9.7 13.003l2.595-2.596 1.87 1.644c.422-.23.871-.414 1.34-.554l.16-2.486h3.67l.16 2.486c.47.14.918.325 1.34.554l1.871-1.644 2.595 2.596-1.644 1.87c.23.422.415.87.554 1.34l2.486.16v3.67z"/>
    </g>
</svg>
