<?xml version="1.0" encoding="UTF-8"?>
<svg width="20px" height="11px" viewBox="0 0 20 11" version="1.1" xmlns="http://www.w3.org/2000/svg" xmlns:xlink="http://www.w3.org/1999/xlink">
    <!-- Generator: sketchtool 47.1 (45422) - http://www.bohemiancoding.com/sketch -->
    <title>E1B8FFC9-D3E6-48A3-BDFA-B6E149B6B7B0</title>
    <desc>Created with sketchtool.</desc>
    <defs></defs>
    <g id="Layout" stroke="none" stroke-width="1" fill="none" fill-rule="evenodd" opacity="0.799999952">
        <g id="Heating-&amp;-Air-Conditioning-(v0.1)" transform="translate(-670.000000, -1388.000000)" fill="#FFFFFF">
            <g id="Group-6" transform="translate(496.000000, 946.000000)">
                <path d="M174.15625,442.664062 C174.15625,442.48177 174.221354,442.325521 174.351562,442.195312 C174.481771,442.065104 174.63802,442 174.820312,442 C175.002605,442 175.158854,442.065104 175.289062,442.195312 L184.117188,451.023438 L192.808594,442.332031 C192.938803,442.201822 193.095051,442.136719 193.277344,442.136719 C193.459636,442.136719 193.615885,442.201822 193.746094,442.332031 C193.876303,442.46224 193.941406,442.618489 193.941406,442.800781 C193.941406,442.983074 193.876303,443.139322 193.746094,443.269531 L184.585938,452.429688 C184.455729,452.559896 184.29948,452.625 184.117188,452.625 C183.934895,452.625 183.778646,452.559896 183.648438,452.429688 L174.351562,443.152344 C174.325521,443.126302 174.302734,443.097005 174.283203,443.064453 C174.263672,443.031901 174.247396,442.999349 174.234375,442.966797 L174.195312,442.869141 C174.182292,442.836588 174.172526,442.804037 174.166016,442.771484 C174.159505,442.738932 174.15625,442.703125 174.15625,442.664062 Z" id="Arrow-down---simple-line-icons"></path>
            </g>
        </g>
    </g>
</svg>