<svg xmlns="http://www.w3.org/2000/svg" width="36" height="60" viewBox="0 0 36 60">
    <g fill="none" fill-rule="evenodd">
        <path fill="#4D0011" d="M0 0h36v60H0z"/>
        <path fill="#FFF" stroke="#F6EED9" stroke-width="2" d="M14.762 20.445a.64.64 0 0 0-.469-.195.64.64 0 0 0-.469.195.388.388 0 0 0-.117.137.808.808 0 0 0-.059.508.612.612 0 0 0 .176.313l8.906 8.906-8.789 8.789a.652.652 0 0 0-.166.293.645.645 0 0 0 0 .351.652.652 0 0 0 .645.488.65.65 0 0 0 .478-.195l9.258-9.258a.64.64 0 0 0 .196-.468.64.64 0 0 0-.196-.47l-9.394-9.394z"/>
    </g>
</svg>
