<?xml version="1.0" encoding="UTF-8"?>
<svg width="16px" height="18px" viewBox="0 0 16 18" version="1.1" xmlns="http://www.w3.org/2000/svg" xmlns:xlink="http://www.w3.org/1999/xlink">
    <!-- Generator: sketchtool 47.1 (45422) - http://www.bohemiancoding.com/sketch -->
    <title>D3769A50-57EE-45F5-B964-C9AB1C965057</title>
    <desc>Created with sketchtool.</desc>
    <defs></defs>
    <g id="Layout" stroke="none" stroke-width="1" fill="none" fill-rule="evenodd" opacity="0.799999952">
        <g id="Heating-&amp;-Air-Conditioning-/-UI-Style-guide(v0.1)" transform="translate(-605.000000, -3431.000000)" fill="#0F2030">
            <g id="POPUP-FORM" transform="translate(0.000000, 2942.000000)">
                <g id="Group-45" transform="translate(304.000000, 98.000000)">
                    <g id="Group-27">
                        <path d="M313.932692,397.826923 C314.537864,397.826923 315.054535,398.041013 315.482722,398.469201 C315.91091,398.897388 316.125,399.414059 316.125,400.019231 L316.125,406.596154 C316.125,407.201325 315.91091,407.717997 315.482722,408.146184 C315.054535,408.574371 314.537864,408.788462 313.932692,408.788462 L304.067308,408.788462 C303.462136,408.788462 302.945465,408.574371 302.517278,408.146184 C302.08909,407.717997 301.875,407.201325 301.875,406.596154 L301.875,400.019231 C301.875,399.414059 302.08909,398.897388 302.517278,398.469201 C302.945465,398.041013 303.462136,397.826923 304.067308,397.826923 L304.615385,397.826923 L304.615385,395.73738 C304.615385,394.91526 304.795221,394.164517 305.154898,393.485126 C305.514575,392.805736 306.031247,392.263373 306.704928,391.858023 C307.378609,391.452672 308.137916,391.25 308.982873,391.25 C310.261725,391.25 311.31505,391.681035 312.142879,392.543119 C312.970707,393.405203 313.384615,394.469946 313.384615,395.73738 L313.384615,397.826923 L313.932692,397.826923 Z M305.711538,395.73738 L305.711538,397.826923 L312.288462,397.826923 L312.288462,395.73738 C312.288462,394.766822 311.980171,393.958988 311.363582,393.313852 C310.746992,392.668717 309.95343,392.346154 308.982873,392.346154 C308.012315,392.346154 307.224462,392.671571 306.619291,393.322416 C306.01412,393.97326 305.711538,394.77824 305.711538,395.73738 Z M315.028846,406.596154 L315.028846,400.019231 C315.028846,399.722354 314.920374,399.465446 314.703425,399.248498 C314.486477,399.031549 314.229569,398.923077 313.932692,398.923077 L304.067308,398.923077 C303.770431,398.923077 303.513523,399.031549 303.296575,399.248498 C303.079626,399.465446 302.971154,399.722354 302.971154,400.019231 L302.971154,406.596154 C302.971154,406.89303 303.079626,407.149939 303.296575,407.366887 C303.513523,407.583835 303.770431,407.692308 304.067308,407.692308 L313.932692,407.692308 C314.126804,407.692308 314.309494,407.643781 314.480769,407.546725 C314.652044,407.449669 314.786207,407.315506 314.883263,407.144231 C314.980319,406.972956 315.028846,406.790265 315.028846,406.596154 Z M309.770733,401.440805 C309.987681,401.646335 310.096154,401.903244 310.096154,402.211538 C310.096154,402.622598 309.913463,402.936597 309.548077,403.153546 L309.548077,404.951923 C309.548077,405.100361 309.493841,405.228816 309.385367,405.33729 C309.276892,405.445764 309.148438,405.5 309,405.5 C308.851562,405.5 308.723108,405.445764 308.614633,405.33729 C308.506159,405.228816 308.451923,405.100361 308.451923,404.951923 L308.451923,403.153546 C308.086537,402.936597 307.903846,402.622598 307.903846,402.211538 C307.903846,401.903244 308.009464,401.643481 308.220703,401.432242 C308.431942,401.221003 308.691705,401.115385 309,401.115385 C309.308295,401.115385 309.565203,401.223857 309.770733,401.440805 Z" id="Lock---simple-line-icons"></path>
                    </g>
                </g>
            </g>
        </g>
    </g>
</svg>