<svg xmlns="http://www.w3.org/2000/svg" width="190" height="40" viewBox="0 0 190 40">
    <g fill="none" fill-rule="evenodd">
        <path fill="#FC5130" stroke="#FC5130" stroke-width="2" d="M17.039 27.315l2.095 7.25h2.933L12.76 3.436h-1.5L2 34.564h2.955l2.073-7.25h10.01zm-9.24-2.67l4.146-14.35.088-1.151.088 1.15 4.168 14.35H7.8zm35.657 2.713v-1.237l-2.845-.456v1.693c0 .695-.132 1.343-.396 1.943a5.167 5.167 0 0 1-1.08 1.585 5.028 5.028 0 0 1-1.6 1.075c-.61.26-1.268.39-1.973.39h-1.985c-.705 0-1.363-.13-1.973-.39a5.16 5.16 0 0 1-1.61-1.075 5.073 5.073 0 0 1-1.092-1.585 4.765 4.765 0 0 1-.397-1.943V10.642c0-.695.133-1.343.397-1.943.265-.6.629-1.126 1.092-1.574.463-.449 1-.803 1.61-1.064.61-.26 1.268-.39 1.973-.39h1.985c.705 0 1.363.13 1.973.39a5.034 5.034 0 0 1 2.68 2.638c.264.6.396 1.248.396 1.943v1.693l2.845-.434v-1.26a7.354 7.354 0 0 0-.606-2.973 7.699 7.699 0 0 0-1.665-2.432 7.833 7.833 0 0 0-2.47-1.639A7.673 7.673 0 0 0 35.695 3h-2.25a7.754 7.754 0 0 0-3.032.597 7.699 7.699 0 0 0-4.146 4.07 7.354 7.354 0 0 0-.606 2.975v16.716c0 1.057.202 2.048.606 2.974a7.699 7.699 0 0 0 4.146 4.071 7.754 7.754 0 0 0 3.032.597h2.25c1.072 0 2.08-.199 3.02-.597a7.833 7.833 0 0 0 2.47-1.64 7.699 7.699 0 0 0 1.665-2.43 7.354 7.354 0 0 0 .606-2.975zM57.46 6.104H65v-2.67H47.072v2.67h7.542v28.462h2.845V6.104z"/>
        <path fill="#FFF" d="M78.658 12.88h-4.432l-.918 3.244H72l4.1-13.93h.664l4.12 13.93h-1.298l-.928-3.245zm-4.09-1.195h3.758l-1.845-6.421-.039-.515-.039.515-1.835 6.42zm8.015-7.898V2.194h1.396v1.593h-1.396zm.098 12.337V6.177h1.2v9.947h-1.2zm6.941-8.81c-.24 0-.467.045-.678.135a1.742 1.742 0 0 0-.923.918 1.68 1.68 0 0 0-.137.675v7.082h-1.2V6.177h.4l.654 1.01c.273-.369.617-.662 1.03-.879a2.865 2.865 0 0 1 1.352-.325h.703v1.33h-1.2zm15.475 5.585c0 .473-.09.916-.269 1.33a3.446 3.446 0 0 1-1.83 1.822 3.366 3.366 0 0 1-1.338.267h-.996a3.45 3.45 0 0 1-2.44-1 3.446 3.446 0 0 1-.738-1.088 3.32 3.32 0 0 1-.268-1.331v-7.48c0-.473.09-.916.268-1.33a3.446 3.446 0 0 1 1.836-1.822c.42-.178.867-.267 1.342-.267h.996c.475 0 .921.089 1.338.267a3.446 3.446 0 0 1 1.83 1.821c.18.415.269.858.269 1.331v.564l-1.26.194v-.758c0-.31-.058-.6-.176-.87a2.253 2.253 0 0 0-1.186-1.18 2.181 2.181 0 0 0-.874-.174h-.878c-.313 0-.604.058-.874.175-.27.116-.508.275-.713.476-.205.2-.366.435-.483.704a2.152 2.152 0 0 0-.176.87v7.479c0 .31.059.6.176.87a2.27 2.27 0 0 0 1.196 1.19c.27.116.561.174.874.174h.878c.313 0 .604-.058.874-.175.27-.116.506-.277.708-.48.202-.205.361-.441.478-.71.118-.269.176-.558.176-.87v-.757l1.26.204v.554zm9.08.495c0 .402-.077.78-.23 1.137a2.935 2.935 0 0 1-2.71 1.787h-.8a2.952 2.952 0 0 1-2.08-.855 2.935 2.935 0 0 1-.63-.932 2.85 2.85 0 0 1-.229-1.137V8.906c0-.401.077-.78.23-1.136a2.935 2.935 0 0 1 2.709-1.787h.8a2.952 2.952 0 0 1 2.08.855c.267.265.477.576.63.932.153.356.23.735.23 1.136v4.488zm-1.202-4.556c0-.24-.045-.464-.136-.675a1.742 1.742 0 0 0-.923-.918 1.704 1.704 0 0 0-.678-.136h-.801a1.752 1.752 0 0 0-1.23.505c-.156.156-.28.339-.371.55a1.68 1.68 0 0 0-.137.674v4.624c0 .24.046.465.137.675a1.742 1.742 0 0 0 .922.918c.212.09.438.136.679.136h.8a1.752 1.752 0 0 0 1.23-.505c.157-.155.28-.338.372-.549a1.68 1.68 0 0 0 .136-.675V8.838zm9.08 7.286V8.838c0-.24-.046-.464-.137-.675a1.742 1.742 0 0 0-.922-.918 1.704 1.704 0 0 0-.679-.136h-.8a1.752 1.752 0 0 0-1.23.505c-.157.156-.28.339-.372.55a1.68 1.68 0 0 0-.136.674v7.286h-1.201V6.177h.4l.654 1.01c.274-.369.617-.662 1.03-.879a2.865 2.865 0 0 1 1.353-.325h.302a2.952 2.952 0 0 1 2.08.855c.267.265.476.576.63.932.152.356.229.735.229 1.136v7.218h-1.201zm9.88 0l-.664-1.01a3.01 3.01 0 0 1-1.025.879c-.41.217-.859.325-1.347.325h-.303a2.952 2.952 0 0 1-2.08-.855 2.935 2.935 0 0 1-.629-.932 2.85 2.85 0 0 1-.23-1.137V8.906c0-.401.077-.78.23-1.136a2.935 2.935 0 0 1 2.71-1.787h.302a2.89 2.89 0 0 1 2.236 1.03V2.193h1.2v13.93h-.4zm-.8-7.286c0-.24-.046-.464-.137-.675a1.742 1.742 0 0 0-.923-.918 1.704 1.704 0 0 0-.678-.136h-.8a1.752 1.752 0 0 0-1.23.505c-.157.156-.28.339-.372.55a1.68 1.68 0 0 0-.137.674v4.624c0 .24.046.465.137.675a1.742 1.742 0 0 0 .923.918c.211.09.437.136.678.136h.8a1.752 1.752 0 0 0 1.23-.505c.157-.155.28-.338.372-.549a1.68 1.68 0 0 0 .137-.675V8.838zm3.905-5.05V2.193h1.396v1.593h-1.396zm.097 12.336V6.177h1.201v9.947h-1.2zm7.645 0a2.621 2.621 0 0 1-1.87-.768 2.752 2.752 0 0 1-.566-.835 2.5 2.5 0 0 1-.21-1.02V7.313h-1.796V6.177h1.796v-2.39l1.2-.194v2.584h2.54v1.136h-2.54v6.246c0 .201.038.387.113.559a1.447 1.447 0 0 0 .767.758c.175.074.364.111.566.111h1.093v1.137h-1.093zm3.602-12.337V2.194h1.397v1.593h-1.397zm.098 12.337V6.177h1.2v9.947h-1.2zm10.68-2.73c0 .402-.076.78-.229 1.137a2.935 2.935 0 0 1-2.709 1.787h-.8a2.952 2.952 0 0 1-2.08-.855 2.935 2.935 0 0 1-.63-.932 2.85 2.85 0 0 1-.23-1.137V8.906c0-.401.077-.78.23-1.136a2.935 2.935 0 0 1 2.71-1.787h.8a2.952 2.952 0 0 1 2.08.855c.267.265.476.576.63.932.152.356.229.735.229 1.136v4.488zm-1.2-4.556c0-.24-.046-.464-.137-.675a1.742 1.742 0 0 0-.922-.918 1.704 1.704 0 0 0-.679-.136h-.8a1.752 1.752 0 0 0-1.23.505c-.157.156-.28.339-.372.55a1.68 1.68 0 0 0-.136.674v4.624c0 .24.045.465.136.675a1.742 1.742 0 0 0 .923.918c.212.09.438.136.679.136h.8a1.752 1.752 0 0 0 1.23-.505c.156-.155.28-.338.371-.549a1.68 1.68 0 0 0 .137-.675V8.838zm9.08 7.286V8.838c0-.24-.046-.464-.137-.675a1.742 1.742 0 0 0-.923-.918 1.704 1.704 0 0 0-.678-.136h-.8a1.752 1.752 0 0 0-1.23.505c-.157.156-.28.339-.372.55a1.68 1.68 0 0 0-.137.674v7.286h-1.2V6.177h.4l.654 1.01c.273-.369.617-.662 1.03-.879A2.865 2.865 0 0 1 163 5.983h.303a2.952 2.952 0 0 1 2.08.855c.266.265.476.576.629.932.153.356.23.735.23 1.136v7.218h-1.201zm3.905-12.337V2.194h1.396v1.593h-1.396zm.097 12.337V6.177h1.201v9.947h-1.2zm9.48 0V8.838c0-.24-.045-.464-.136-.675a1.742 1.742 0 0 0-.923-.918 1.704 1.704 0 0 0-.679-.136h-.8a1.752 1.752 0 0 0-1.23.505c-.156.156-.28.339-.371.55a1.68 1.68 0 0 0-.137.674v7.286h-1.2V6.177h.4l.654 1.01c.273-.369.616-.662 1.03-.879a2.865 2.865 0 0 1 1.352-.325h.302a2.952 2.952 0 0 1 2.08.855c.267.265.477.576.63.932.153.356.23.735.23 1.136v7.218h-1.202zm10.378 1.253c0 .401-.076.77-.23 1.107a2.583 2.583 0 0 1-.629.865c-.267.24-.579.425-.937.558-.358.133-.739.2-1.142.2h-.498c-.404 0-.785-.067-1.142-.2a2.892 2.892 0 0 1-.938-.558 2.583 2.583 0 0 1-.63-.865 2.646 2.646 0 0 1-.229-1.107v-.04a2.613 2.613 0 0 1 .8-1.913 2.103 2.103 0 0 1-1.024-1.826c0-.35.074-.675.224-.976.15-.301.355-.546.615-.733a2.995 2.995 0 0 1-.742-.982 2.873 2.873 0 0 1-.273-1.253v-.748c0-.401.076-.78.23-1.136a2.935 2.935 0 0 1 2.709-1.787h.497c.489 0 .94.108 1.353.325.413.217.756.51 1.03.88l.654-1.011h.4v3.477c0 .402-.076.78-.23 1.137a2.935 2.935 0 0 1-2.709 1.787h-1.737a.95.95 0 0 0-.391.083 1.133 1.133 0 0 0-.327.218.945.945 0 0 0-.22.326 1.022 1.022 0 0 0 0 .782 1.01 1.01 0 0 0 .547.544 1 1 0 0 0 .39.077h1.64c.404 0 .785.067 1.143.2.358.132.67.318.937.558.267.24.477.528.63.865.153.336.23.705.23 1.107v.039zm-1.093-8.539a1.702 1.702 0 0 0-.513-1.224 1.812 1.812 0 0 0-.556-.369 1.704 1.704 0 0 0-.679-.136h-.995a1.752 1.752 0 0 0-1.23.505c-.157.156-.28.339-.372.55a1.68 1.68 0 0 0-.136.674v.884c0 .24.045.465.136.675a1.742 1.742 0 0 0 .923.918c.212.091.438.136.679.136h.995c.241 0 .467-.045.679-.136.211-.09.397-.213.556-.369a1.702 1.702 0 0 0 .513-1.224v-.884zm-.049 8.442c0-.24-.045-.455-.137-.646a1.396 1.396 0 0 0-.37-.481c-.157-.13-.34-.23-.552-.301a2.112 2.112 0 0 0-.679-.107h-.615c-.24 0-.467.036-.678.107a1.709 1.709 0 0 0-.552.3c-.156.13-.28.29-.37.482a1.482 1.482 0 0 0-.138.646v.155c0 .24.046.453.137.641.091.188.215.348.371.481s.34.235.552.306c.211.071.437.107.678.107h.615c.241 0 .467-.036.679-.107a1.66 1.66 0 0 0 .551-.306 1.46 1.46 0 0 0 .371-.48 1.45 1.45 0 0 0 .137-.642v-.155zM76.803 23.283v12.734h-1.259V23.283h-3.339v-1.195h7.937v1.195h-3.339zm10.818 10.005c0 .401-.077.78-.23 1.136a2.935 2.935 0 0 1-2.709 1.788h-.8a2.952 2.952 0 0 1-2.08-.855 2.935 2.935 0 0 1-.63-.933 2.85 2.85 0 0 1-.23-1.136V28.8c0-.401.077-.78.23-1.136a2.935 2.935 0 0 1 2.71-1.788h.8a2.952 2.952 0 0 1 2.08.855c.267.266.476.576.63.933.152.356.229.735.229 1.136v2.341h-5.477v2.215c0 .24.045.464.136.675a1.742 1.742 0 0 0 .923.918c.212.09.438.136.679.136h.8a1.752 1.752 0 0 0 1.23-.505c.157-.156.28-.339.371-.55a1.68 1.68 0 0 0 .137-.674v-.66l1.2.194v.398zm-1.201-4.556c0-.24-.046-.465-.137-.675a1.742 1.742 0 0 0-.922-.918 1.704 1.704 0 0 0-.679-.136h-.8a1.752 1.752 0 0 0-1.23.505c-.157.156-.28.339-.372.549a1.68 1.68 0 0 0-.136.675v1.477h4.276v-1.477zm10.28 4.556c0 .401-.076.78-.229 1.136a2.935 2.935 0 0 1-2.71 1.788h-.8a2.952 2.952 0 0 1-2.08-.855 2.935 2.935 0 0 1-.629-.933 2.85 2.85 0 0 1-.23-1.136V28.8c0-.401.077-.78.23-1.136a2.935 2.935 0 0 1 2.71-1.788h.8a2.952 2.952 0 0 1 2.08.855c.266.266.476.576.629.933.153.356.23.735.23 1.136v.398l-1.201.195v-.66c0-.24-.046-.466-.137-.676a1.742 1.742 0 0 0-.923-.918 1.704 1.704 0 0 0-.678-.136h-.8a1.752 1.752 0 0 0-1.23.505c-.157.156-.28.339-.372.549a1.68 1.68 0 0 0-.137.675v4.624c0 .24.046.464.137.675a1.742 1.742 0 0 0 .923.918c.211.09.437.136.678.136h.8a1.752 1.752 0 0 0 1.23-.505c.157-.156.28-.339.372-.55a1.68 1.68 0 0 0 .137-.674v-.66l1.2.194v.398zm7.88 2.73v-7.286c0-.24-.046-.465-.137-.675a1.742 1.742 0 0 0-.923-.918 1.704 1.704 0 0 0-.679-.136h-.8a1.752 1.752 0 0 0-1.23.505c-.157.156-.28.339-.371.549a1.68 1.68 0 0 0-.137.675v7.285h-1.2v-13.93h1.2v4.819a2.891 2.891 0 0 1 2.236-1.03h.302a2.952 2.952 0 0 1 2.08.855c.267.266.477.576.63.933.153.356.229.735.229 1.136v7.217h-1.2zm9.079 0v-7.286c0-.24-.046-.465-.137-.675a1.742 1.742 0 0 0-.922-.918 1.704 1.704 0 0 0-.679-.136h-.8a1.752 1.752 0 0 0-1.23.505c-.157.156-.28.339-.372.549a1.68 1.68 0 0 0-.136.675v7.285h-1.201v-9.946h.4l.654 1.01c.274-.37.617-.662 1.03-.88a2.865 2.865 0 0 1 1.352-.325h.303a2.952 2.952 0 0 1 2.08.855c.266.266.476.576.63.933.152.356.229.735.229 1.136v7.217h-1.201zm10.28-2.73c0 .401-.076.78-.23 1.136a2.935 2.935 0 0 1-2.708 1.788h-.801a2.952 2.952 0 0 1-2.08-.855 2.935 2.935 0 0 1-.63-.933 2.85 2.85 0 0 1-.229-1.136V28.8c0-.401.077-.78.23-1.136a2.935 2.935 0 0 1 2.709-1.788h.8a2.952 2.952 0 0 1 2.08.855c.267.266.477.576.63.933.153.356.23.735.23 1.136v4.488zm-1.2-4.556c0-.24-.046-.465-.137-.675a1.742 1.742 0 0 0-.923-.918 1.704 1.704 0 0 0-.678-.136h-.801a1.752 1.752 0 0 0-1.23.505c-.156.156-.28.339-.371.549a1.68 1.68 0 0 0-.137.675v4.624c0 .24.046.464.137.675a1.742 1.742 0 0 0 .922.918c.212.09.438.136.679.136h.8a1.752 1.752 0 0 0 1.23-.505c.157-.156.28-.339.372-.55a1.68 1.68 0 0 0 .136-.674v-4.624zm4.002 7.285v-13.93h1.201v13.93h-1.2zm10.486-2.73c0 .402-.077.781-.23 1.137a2.935 2.935 0 0 1-2.709 1.788h-.8a2.952 2.952 0 0 1-2.08-.855 2.935 2.935 0 0 1-.63-.933 2.85 2.85 0 0 1-.23-1.136V28.8c0-.401.077-.78.23-1.136a2.935 2.935 0 0 1 2.71-1.788h.8a2.952 2.952 0 0 1 2.08.855c.266.266.476.576.63.933.152.356.229.735.229 1.136v4.488zm-1.201-4.555c0-.24-.046-.465-.137-.675a1.742 1.742 0 0 0-.922-.918 1.704 1.704 0 0 0-.679-.136h-.8a1.752 1.752 0 0 0-1.23.505c-.157.156-.28.339-.372.549a1.68 1.68 0 0 0-.136.675v4.624c0 .24.045.464.136.675a1.742 1.742 0 0 0 .923.918c.211.09.438.136.678.136h.801a1.752 1.752 0 0 0 1.23-.505c.156-.156.28-.339.371-.55a1.68 1.68 0 0 0 .137-.674v-4.624zm10.378 8.538c0 .402-.077.771-.23 1.108a2.583 2.583 0 0 1-.63.864c-.266.24-.578.426-.936.559-.358.133-.74.199-1.143.199h-.498c-.403 0-.784-.066-1.142-.2a2.892 2.892 0 0 1-.937-.558 2.583 2.583 0 0 1-.63-.864 2.646 2.646 0 0 1-.23-1.108v-.038a2.613 2.613 0 0 1 .801-1.914 2.103 2.103 0 0 1-1.025-1.826c0-.35.075-.675.225-.976.15-.302.354-.546.615-.734a2.995 2.995 0 0 1-.742-.98 2.873 2.873 0 0 1-.274-1.254V28.8c0-.401.077-.78.23-1.136a2.935 2.935 0 0 1 2.71-1.788h.497c.488 0 .939.109 1.352.326.413.217.757.51 1.03.879l.654-1.01h.4v3.477c0 .402-.076.78-.229 1.137a2.935 2.935 0 0 1-2.71 1.787h-1.737a.95.95 0 0 0-.39.082 1.133 1.133 0 0 0-.327.219.945.945 0 0 0-.22.325 1.022 1.022 0 0 0 0 .782 1.01 1.01 0 0 0 .547.544 1 1 0 0 0 .39.078h1.64c.404 0 .785.066 1.143.2.358.132.67.318.937.558.267.24.477.527.63.864.152.337.229.706.229 1.108v.038zm-1.094-8.538a1.702 1.702 0 0 0-.513-1.224 1.812 1.812 0 0 0-.556-.369 1.704 1.704 0 0 0-.678-.136h-.996a1.752 1.752 0 0 0-1.23.505c-.156.156-.28.339-.371.549a1.68 1.68 0 0 0-.137.675v.884c0 .24.046.465.137.675a1.742 1.742 0 0 0 .923.918c.211.09.437.136.678.136h.996c.24 0 .467-.045.678-.136.212-.09.397-.214.557-.369a1.702 1.702 0 0 0 .512-1.224v-.884zm-.048 8.441c0-.24-.046-.455-.137-.646a1.396 1.396 0 0 0-.371-.48c-.156-.13-.34-.23-.552-.302a2.112 2.112 0 0 0-.678-.106h-.615c-.241 0-.467.035-.679.106a1.709 1.709 0 0 0-.551.302c-.157.129-.28.29-.371.48a1.482 1.482 0 0 0-.137.646v.156c0 .24.046.453.137.64.09.189.214.349.37.482.157.132.34.234.552.306.212.07.438.106.679.106h.615c.24 0 .467-.035.678-.106a1.66 1.66 0 0 0 .552-.306 1.46 1.46 0 0 0 .371-.481 1.45 1.45 0 0 0 .137-.641v-.156zm3.749-13.492v-1.593h1.396v1.593h-1.396zm.097 12.336v-9.946h1.201v9.946h-1.2zm10.681-2.73c0 .402-.076.781-.23 1.137a2.935 2.935 0 0 1-2.709 1.788h-.8a2.952 2.952 0 0 1-2.08-.855 2.935 2.935 0 0 1-.63-.933 2.85 2.85 0 0 1-.229-1.136V28.8c0-.401.077-.78.23-1.136a2.935 2.935 0 0 1 2.709-1.788h.8a2.952 2.952 0 0 1 2.08.855c.267.266.477.576.63.933.153.356.23.735.23 1.136v2.341h-5.478v2.215c0 .24.046.464.137.675a1.742 1.742 0 0 0 .922.918c.212.09.438.136.679.136h.8a1.752 1.752 0 0 0 1.23-.505c.157-.156.28-.339.372-.55a1.68 1.68 0 0 0 .136-.674v-.66l1.201.194v.398zm-1.2-4.555c0-.24-.046-.465-.137-.675a1.742 1.742 0 0 0-.923-.918 1.704 1.704 0 0 0-.679-.136h-.8a1.752 1.752 0 0 0-1.23.505c-.157.156-.28.339-.371.549a1.68 1.68 0 0 0-.137.675v1.477h4.276v-1.477zm10.475 4.76c0 .401-.081.769-.244 1.102-.163.334-.384.62-.664.86s-.604.426-.971.559a3.38 3.38 0 0 1-1.157.199h-.8a3.084 3.084 0 0 1-2.123-.855 3.087 3.087 0 0 1-.665-.933 2.658 2.658 0 0 1-.25-1.136v-.398l1.202-.195v.66c0 .24.05.465.15.676.102.21.237.393.406.549.17.155.365.278.586.369.221.09.452.136.693.136h.8c.241 0 .472-.036.694-.107.221-.071.418-.173.59-.306.173-.133.31-.293.41-.48.101-.189.152-.402.152-.642 0-.356-.078-.647-.234-.874a1.938 1.938 0 0 0-.62-.568 4.03 4.03 0 0 0-.88-.38c-.328-.1-.665-.2-1.01-.3-.345-.1-.681-.216-1.01-.345-.329-.13-.622-.3-.879-.51a2.346 2.346 0 0 1-.62-.792c-.156-.317-.234-.712-.234-1.185 0-.401.078-.769.234-1.102.157-.334.368-.62.635-.86s.578-.426.932-.559c.355-.132.734-.199 1.138-.199h.703a2.952 2.952 0 0 1 2.08.855c.266.266.476.576.629.933.153.356.23.735.23 1.136v.039l-1.202.194v-.3c0-.24-.045-.466-.136-.676a1.742 1.742 0 0 0-.923-.918 1.704 1.704 0 0 0-.678-.136h-.703c-.241 0-.467.036-.679.107a1.66 1.66 0 0 0-.551.306 1.46 1.46 0 0 0-.371.48 1.45 1.45 0 0 0-.137.642c0 .343.078.623.234.84.156.217.363.4.62.549.257.149.55.273.879.374.328.1.664.204 1.005.31.342.108.677.229 1.006.365.329.136.622.31.879.525.257.213.463.48.62.8.156.321.234.718.234 1.19z"/>
    </g>
</svg>
