<svg xmlns="http://www.w3.org/2000/svg" width="159" height="40" viewBox="0 0 159 40">
    <g fill="#FFF" fill-rule="evenodd">
        <path d="M34.928 21.192c-.704 0-1.336-.104-1.896-.312-.56-.208-.84-.472-.84-.792 0-.464.104-.948.312-1.452.208-.504.44-.764.696-.78.064 0 .204.024.42.072.216.048.452.072.708.072.432 0 .736-.192.912-.576.176-.384.264-1.008.264-1.872V4.92c0-.528.456-.792 1.368-.792h1.008c.928 0 1.392.264 1.392.792v11.232c0 3.36-1.448 5.04-4.344 5.04zm12.6 0c-1.808 0-3.224-.448-4.248-1.344-1.024-.896-1.536-2.152-1.536-3.768V4.92c0-.512.464-.768 1.392-.768h.96c.928 0 1.392.256 1.392.768v10.92c0 .656.184 1.188.552 1.596.368.408.864.612 1.488.612.608 0 1.1-.208 1.476-.624.376-.416.564-.944.564-1.584V4.92c0-.512.464-.768 1.392-.768h.936c.928 0 1.392.256 1.392.768v11.16c0 1.616-.508 2.872-1.524 3.768-1.016.896-2.428 1.344-4.236 1.344zm11.928 0a8.01 8.01 0 0 1-2.328-.348c-.768-.232-1.328-.548-1.68-.948-.208-.288-.312-.568-.312-.84 0-.448.12-.904.36-1.368.24-.464.504-.696.792-.696.128 0 .332.08.612.24.28.16.484.272.612.336.624.32 1.176.48 1.656.48.496 0 .928-.12 1.296-.36s.552-.648.552-1.224c0-.432-.096-.8-.288-1.104a2.52 2.52 0 0 0-.708-.744c-.28-.192-.684-.432-1.212-.72-1.216-.688-2.096-1.416-2.64-2.184-.544-.768-.816-1.8-.816-3.096 0-1.44.46-2.568 1.38-3.384.92-.816 2.14-1.224 3.66-1.224.544 0 1.12.084 1.728.252.608.168 1.08.372 1.416.612a.984.984 0 0 1 .432.84c0 .416-.092.856-.276 1.32-.184.464-.412.696-.684.696-.128 0-.36-.064-.696-.192-.624-.24-1.144-.36-1.56-.36-.64 0-1.08.136-1.32.408-.24.272-.36.584-.36.936 0 .592.156 1.044.468 1.356.312.312.804.652 1.476 1.02l.552.312c1.104.64 1.9 1.328 2.388 2.064s.732 1.704.732 2.904a5.43 5.43 0 0 1-.576 2.484c-.384.76-.968 1.372-1.752 1.836-.784.464-1.752.696-2.904.696zm10.488-.144c-.928 0-1.392-.256-1.392-.768V7.344h-2.664c-.24 0-.416-.096-.528-.288-.112-.192-.168-.496-.168-.912V5.4c0-.416.056-.72.168-.912.112-.192.288-.288.528-.288h9.12c.256 0 .44.096.552.288.112.192.168.496.168.912v.744c0 .416-.056.72-.168.912-.112.192-.296.288-.552.288H72.32V20.28c0 .512-.464.768-1.392.768h-.984zm12 0c-.96 0-1.44-.256-1.44-.768V5.16c0-.336.076-.58.228-.732.152-.152.396-.228.732-.228h4.152c1.264 0 2.38.364 3.348 1.092.968.728 1.452 2.116 1.452 4.164 0 1.408-.28 2.5-.84 3.276-.56.776-1.184 1.3-1.872 1.572-.688.272-1.304.408-1.848.408H84.2v5.568c0 .512-.48.768-1.44.768h-.816zm3.504-9.432c.368 0 .688-.16.96-.48.272-.32.408-.88.408-1.68 0-.784-.136-1.332-.408-1.644-.272-.312-.592-.468-.96-.468h-1.272v4.272h1.272zM93.008 21c-.304 0-.528-.076-.672-.228-.144-.152-.216-.396-.216-.732V5.16c0-.336.072-.58.216-.732.144-.152.368-.228.672-.228h7.08c.24 0 .416.096.528.288.112.192.168.496.168.912v.744c0 .416-.056.72-.168.912-.112.192-.288.288-.528.288h-4.224v3.48h3.744c.24 0 .416.096.528.288.112.192.168.496.168.912v.744c0 .416-.056.72-.168.912-.112.192-.288.288-.528.288h-3.744v3.888h4.248c.24 0 .412.096.516.288.104.192.156.496.156.912v.744c0 .416-.052.72-.156.912-.104.192-.276.288-.516.288h-7.104zm11.448.048c-.96 0-1.44-.256-1.44-.768V5.16c0-.336.076-.58.228-.732.152-.152.396-.228.732-.228h4.008c1.472 0 2.656.364 3.552 1.092.896.728 1.344 1.94 1.344 3.636 0 1.872-.76 3.224-2.28 4.056v.096c.352.192.672.512.96.96.288.448.504.928.648 1.44l1.416 4.608.072.288c0 .432-.496.648-1.488.648h-.84c-.848 0-1.328-.216-1.44-.648l-1.272-4.56c-.144-.352-.308-.6-.492-.744-.184-.144-.476-.216-.876-.216h-.576v5.424c0 .512-.48.768-1.44.768h-.816zm3.6-9.696c.352 0 .652-.176.9-.528.248-.352.372-.864.372-1.536s-.124-1.164-.372-1.476a1.183 1.183 0 0 0-.972-.468h-1.272v4.008h1.344zm8.736 9.696c-.928 0-1.392-.256-1.392-.768V5.16c0-.336.072-.58.216-.732.144-.152.368-.228.672-.228h6.6c.24 0 .416.096.528.288.112.192.168.496.168.912v.744c0 .416-.056.72-.168.912-.112.192-.288.288-.528.288h-3.744v3.504h3.528c.24 0 .416.096.528.288.112.192.168.496.168.912v.744c0 .416-.056.72-.168.912-.112.192-.288.288-.528.288h-3.528v6.288c0 .512-.464.768-1.392.768h-.96zM126.44 21c-.304 0-.528-.076-.672-.228-.144-.152-.216-.396-.216-.732V5.16c0-.336.072-.58.216-.732.144-.152.368-.228.672-.228h7.08c.24 0 .416.096.528.288.112.192.168.496.168.912v.744c0 .416-.056.72-.168.912-.112.192-.288.288-.528.288h-4.224v3.48h3.744c.24 0 .416.096.528.288.112.192.168.496.168.912v.744c0 .416-.056.72-.168.912-.112.192-.288.288-.528.288h-3.744v3.888h4.248c.24 0 .412.096.516.288.104.192.156.496.156.912v.744c0 .416-.052.72-.156.912-.104.192-.276.288-.516.288h-7.104zm16.008.192c-2.24 0-3.868-.692-4.884-2.076-1.016-1.384-1.524-3.572-1.524-6.564 0-2.88.532-5.024 1.596-6.432 1.064-1.408 2.708-2.112 4.932-2.112.752 0 1.448.088 2.088.264.496.144.744.488.744 1.032 0 .608-.108 1.152-.324 1.632-.216.48-.484.664-.804.552a5.125 5.125 0 0 0-1.536-.24c-.96 0-1.676.44-2.148 1.32-.472.88-.708 2.216-.708 4.008 0 1.792.236 3.132.708 4.02.472.888 1.228 1.332 2.268 1.332.304 0 .56-.02.768-.06.208-.04.48-.108.816-.204a.728.728 0 0 1 .216-.024c.32 0 .56.2.72.6.16.4.24.928.24 1.584 0 .24-.048.444-.144.612-.096.168-.28.3-.552.396a6.4 6.4 0 0 1-1.08.252 8.762 8.762 0 0 1-1.392.108zm8.664-.144c-.928 0-1.392-.256-1.392-.768V7.344h-2.664c-.24 0-.416-.096-.528-.288-.112-.192-.168-.496-.168-.912V5.4c0-.416.056-.72.168-.912.112-.192.288-.288.528-.288h9.12c.256 0 .44.096.552.288.112.192.168.496.168.912v.744c0 .416-.056.72-.168.912-.112.192-.296.288-.552.288h-2.688V20.28c0 .512-.464.768-1.392.768h-.984z"/>
        <path d="M40.914 36h-1.723v-4.423h-4.45V36h-1.73v-9.953h1.73v4.142h4.45v-4.142h1.723V36zm7.95-2.167l2.53-7.786h1.9L49.714 36h-1.675l-3.569-9.953h1.894l2.502 7.786zm13.01-.15H58.02L57.212 36h-1.798l3.76-9.953h1.552L64.492 36h-1.804l-.814-2.317zm-3.37-1.395h2.885l-1.443-4.129-1.442 4.13zm16.967.472c-.1 1.062-.492 1.89-1.175 2.485-.684.594-1.593.892-2.728.892-.793 0-1.491-.188-2.095-.564-.604-.376-1.07-.91-1.398-1.603-.328-.693-.499-1.497-.513-2.413v-.93c0-.939.167-1.766.5-2.481.332-.716.81-1.267 1.431-1.655.623-.387 1.341-.58 2.157-.58 1.099 0 1.983.298 2.653.895.67.597 1.06 1.44 1.168 2.529H73.75c-.082-.716-.29-1.232-.626-1.548-.335-.317-.826-.475-1.473-.475-.752 0-1.33.274-1.733.823-.403.55-.61 1.355-.618 2.417v.882c0 1.075.192 1.895.577 2.46.385.566.95.848 1.692.848.68 0 1.19-.152 1.531-.458.342-.305.559-.813.65-1.524h1.722zm15.034.677c0-.438-.154-.775-.462-1.012-.307-.237-.862-.476-1.664-.718-.802-.242-1.44-.51-1.914-.807-.907-.57-1.36-1.312-1.36-2.228 0-.802.326-1.463.98-1.983.654-.52 1.503-.779 2.547-.779.693 0 1.31.128 1.852.383a3.04 3.04 0 0 1 1.279 1.09c.31.472.465.995.465 1.57h-1.723c0-.52-.163-.927-.489-1.221-.326-.294-.792-.441-1.398-.441-.565 0-1.004.12-1.316.362-.312.242-.468.58-.468 1.012 0 .365.169.669.506.913.337.243.893.48 1.668.71.775.23 1.397.493 1.866.787.47.294.813.63 1.032 1.011.219.381.328.826.328 1.337 0 .83-.317 1.489-.953 1.979-.636.49-1.498.735-2.588.735-.72 0-1.382-.134-1.985-.4-.604-.267-1.074-.635-1.409-1.104-.335-.47-.502-1.016-.502-1.64h1.73c0 .564.186 1.002.56 1.312.374.31.91.465 1.606.465.602 0 1.054-.122 1.357-.366a1.18 1.18 0 0 0 .455-.967zm11.464-1.88h-4.088v3.062h4.779V36h-6.508v-9.953h6.46v1.394h-4.73v2.748h4.087v1.368zm8.156.608h-1.928V36h-1.729v-9.953h3.5c1.148 0 2.035.257 2.66.772.624.515.936 1.26.936 2.236 0 .665-.161 1.222-.482 1.671-.322.449-.77.794-1.344 1.036l2.236 4.15V36h-1.853l-1.996-3.835zm-1.928-1.388h1.778c.583 0 1.039-.147 1.367-.44.328-.295.492-.697.492-1.207 0-.533-.151-.946-.454-1.237-.303-.292-.756-.442-1.357-.452h-1.826v3.336zm12.784 3.056l2.53-7.786h1.9L121.829 36h-1.675l-3.568-9.953h1.893l2.502 7.786zM130.757 36h-1.722v-9.953h1.722V36zm12.12-3.24c-.1 1.062-.491 1.89-1.175 2.485-.683.594-1.593.892-2.727.892-.793 0-1.492-.188-2.096-.564-.603-.376-1.07-.91-1.398-1.603-.328-.693-.499-1.497-.512-2.413v-.93c0-.939.166-1.766.499-2.481.332-.716.81-1.267 1.432-1.655.622-.387 1.34-.58 2.157-.58 1.098 0 1.982.298 2.652.895.67.597 1.06 1.44 1.169 2.529h-1.723c-.082-.716-.29-1.232-.625-1.548-.335-.317-.826-.475-1.473-.475-.752 0-1.33.274-1.733.823-.404.55-.61 1.355-.619 2.417v.882c0 1.075.193 1.895.578 2.46.385.566.949.848 1.692.848.679 0 1.19-.152 1.53-.458.343-.305.56-.813.65-1.524h1.723zm9.763-1.203h-4.088v3.062h4.779V36h-6.508v-9.953h6.46v1.394h-4.73v2.748h4.087v1.368z" opacity=".7"/>
        <g fill-rule="nonzero">
            <path d="M25.525 24.996c.36-.834.388-1.59.088-2.25a2.426 2.426 0 0 0-.5-.712 3.469 3.469 0 0 0-1.09-.716c.235-.811.175-1.52-.178-2.11a2.459 2.459 0 0 0-.358-.455c-.944-.967-1.658-.719-1.658-.719s.386-1.54-.73-2.633c-1.118-1.092-2.18-.625-3.1.311l-4.644 4.641c-.656-.246-1.688-.866-2.751-.745-1.894.218-2.387 1.484-2.654 2.544-.604 2.394-.425 5.963-1.109 7.342-.84 1.696-2.488 3.12-2.488 3.12l6.459 6.459c2.63-2.63 5.16-3.31 7.047-4.1 4.278-1.79 6.378-3.933 7.446-5.084 2.216-2.386.531-4.456.22-4.893zM9.694 6.054l4.164-1.138a6.7 6.7 0 0 0-4.891-3.908.498.498 0 0 0-.571.63l1.298 4.416z"/>
            <path d="M8.843 14.606l3.42 4.345 4.567-4.235-3.109-3.95a7.232 7.232 0 0 0 .735-3.453.498.498 0 0 0-.634-.461l-8.47 2.4-2.45-6.476a.498.498 0 0 0-.825-.169C-.39 5.182-.588 9.234 1.616 12.034a7.157 7.157 0 0 0 5.657 2.745c.529 0 1.056-.058 1.57-.173z"/>
        </g>
    </g>
</svg>
