<svg xmlns="http://www.w3.org/2000/svg" width="97" height="97" viewBox="0 0 97 97">
    <g fill="none" fill-rule="evenodd">
        <path fill="#ACC1D4" fill-opacity=".133" fill-rule="nonzero" stroke="#FFF" stroke-width="4" d="M85.7 48.5H95C95 74.075 74.075 95 48.5 95S2 74.075 2 48.5 22.925 2 48.5 2c6.045 0 12.09 1.395 17.67 3.255l-7.44 7.44c-3.255-.93-6.51-1.395-10.23-1.395-20.46 0-37.2 16.74-37.2 37.2 0 20.46 16.74 37.2 37.2 37.2 20.46 0 37.2-16.74 37.2-37.2z"/>
        <path fill="#226CE0" d="M44.112 56.522L83.71 16.924l4.243 4.243-39.598 39.598-4.243 4.243L25.02 45.916l4.243-4.243 14.85 14.85z"/>
    </g>
</svg>
