<svg xmlns="http://www.w3.org/2000/svg" width="18" height="22" viewBox="0 0 18 22">
    <path fill="#FFF" fill-rule="nonzero" d="M10.731 13.763c-.361.367-.055 1.034-.055 1.034l2.722 4.575s.447.603.834.603c.389 0 .773-.321.773-.321l2.152-3.096s.217-.39.222-.733c.008-.487-.721-.62-.721-.62l-5.095-1.647s-.5-.133-.832.205zm-.258-2.306c.26.445.98.315.98.315l5.083-1.495s.693-.284.792-.662c.097-.378-.114-.834-.114-.834l-2.43-2.88s-.21-.365-.647-.401c-.482-.042-.778.545-.778.545l-2.872 4.55s-.254.453-.014.862zM8.072 9.683c.598-.148.693-1.023.693-1.023l-.04-7.285S8.634.477 8.232.233c-.63-.384-.816-.184-.996-.157l-4.22 1.579s-.414.137-.629.484c-.307.492.313 1.212.313 1.212L7.087 9.37s.433.45.985.313zm-1.043 2.948c.015-.562-.67-.9-.67-.9L1.823 9.426s-.672-.279-.999-.084c-.25.148-.471.417-.493.655l-.295 3.661s-.045.634.119.923c.23.41.992.124.992.124l5.296-1.178c.206-.14.566-.152.586-.895zm1.317 1.976c-.454-.235-.998.251-.998.251l-3.546 3.93s-.443.6-.33.97c.106.345.281.517.53.638l3.56 1.132s.432.09.76-.005c.463-.136.378-.867.378-.867l.08-5.32s-.018-.512-.434-.73z"/>
</svg>
